<svg xmlns="http://www.w3.org/2000/svg" width="141" height="46" fill="none" viewBox="0 0 141 46"><path fill="url(#a)" d="M140.354 44.021h-5.194v-3.456h-.123l-.795-4.783h.746v-1.66h-1.665l-.755-4.547h.661v-1.468h-1.44l-.703-4.222h.586v-1.298h-1.268l-.628-3.773h.515v-1.15h-1.147l-.528-3.174h.458v-1.016h-1.224l-.406-2.431h.397v-.88l1.83-1.17V7.256h-1.348v-.492a.05.05 0 0 0-.051-.051h-.253l-.119-2.691h.13c.031 0 .057-.022.057-.051v-.326c0-.03-.026-.051-.057-.051h-.057v-.672h.057c.031 0 .057-.025.057-.054v-.126q-.001-.033-.033-.047l.016-.02.015-.022q.015-.022.027-.044l.019-.033.011-.023a.722.722 0 0 0-.103-.765 3 3 0 0 0-.174-.182q.003-.003.002-.007v-.02q0-.004-.009-.006h-.033c-.315-.282-.546-.282-.546-.282q0-.001-.026.005h-.013l-.011.002q-.007.002-.014.002l-.019.007q-.005 0-.009.002-.034.008-.077.026-.004 0-.007.003l-.04.015-.011.007-.052.024-.047.03-.008.001c-.038.025-.08.051-.122.087l-.004.002-.013.011q-.024.02-.046.038l-.025.022v.002h-.041q-.01 0-.011.007v.02q0 .007.011.009v.002l-.027.024-.048.047q-.012.012-.022.024-.037.04-.075.08a.715.715 0 0 0-.016.91c-.019.009-.033.024-.033.046v.127c0 .029.027.053.058.053h.057v.67h-.057c-.031 0-.058.024-.058.053v.326c0 .03.027.051.058.051h.129l-.118 2.691h-.254a.05.05 0 0 0-.05.051v.493h-1.665v-.262a.03.03 0 0 0-.029-.029h-.136l-.062-1.435h.069a.03.03 0 0 0 .03-.029v-.173a.03.03 0 0 0-.03-.029h-.031v-.36h.031a.03.03 0 0 0 .03-.028v-.067q0-.016-.017-.026.006-.005.006-.01.007-.006.009-.012l.016-.025q.005-.007.008-.018.004-.003.007-.01a.399.399 0 0 0-.055-.41 1 1 0 0 0-.093-.096v-.016q0-.003-.004-.004h-.015c-.17-.15-.293-.15-.293-.15h-.013q-.006 0-.007.003l-.007.002h-.006q-.006.004-.011.003-.004 0-.005.002a.2.2 0 0 0-.041.013q-.005.001-.005.002l-.022.01-.004.001-.025.011q-.002.003-.004.005l-.026.013q-.001.002-.005.002c-.02.014-.042.027-.066.047h-.002q-.001.003-.007.007l-.024.02-.013.01h-.022q-.005.001-.004.005v.014q-.001.002.004.002v.002l-.015.013-.025.025-.013.013-.04.044a.38.38 0 0 0-.008.484c-.009.004-.018.015-.018.027v.066c0 .016.013.029.031.029h.031v.36h-.031c-.018 0-.031.013-.031.028v.173c0 .016.013.029.031.029h.068l-.062 1.435h-.136a.03.03 0 0 0-.029.03v.26h-1.768v-.26c0-.016-.011-.03-.026-.03h-.137l-.064-1.435h.069a.03.03 0 0 0 .03-.029v-.173a.03.03 0 0 0-.03-.029h-.031v-.36h.031a.03.03 0 0 0 .03-.028v-.066q0-.017-.015-.027.003-.004.007-.009l.008-.013.016-.025q.002-.007.009-.015l.006-.013a.38.38 0 0 0-.055-.408q-.05-.056-.092-.098v-.016q0-.003-.005-.004h-.017c-.168-.149-.291-.149-.291-.149l-.015.002h-.007q-.003.002-.007.003h-.006q-.004.002-.011.004h-.005l-.041.016h-.005q-.01.005-.02.008-.003.004-.006.003l-.022.013q-.003 0-.007.002l-.024.013-.004.005a.4.4 0 0 0-.067.044q-.001.003-.002.002l-.009.005-.024.02-.013.011v.002h-.022q-.003-.001-.004.005v.01q0 .005.004.005l-.013.013-.027.027q-.006.004-.013.011-.017.022-.037.045a.38.38 0 0 0-.009.485q-.018.008-.02.025v.069c0 .015.016.028.033.028h.031v.358h-.031c-.017 0-.033.013-.033.028v.176c0 .015.016.026.033.026h.068l-.063 1.436h-.137a.03.03 0 0 0-.029.028v.264h-1.457v-.264a.03.03 0 0 0-.029-.028h-.134l-.064-1.436h.068c.018 0 .031-.01.031-.026v-.176c0-.015-.013-.028-.031-.028h-.031V4.95h.031c.018 0 .031-.013.031-.028v-.07a.03.03 0 0 0-.015-.024l.006-.01.009-.014q.006-.012.015-.022.005-.009.009-.018l.007-.013a.3.3 0 0 0 .024-.067.4.4 0 0 0-.079-.341q-.048-.057-.093-.098v-.013q.001-.006-.004-.005h-.018c-.167-.15-.293-.15-.293-.15l-.013.002h-.006l-.007.002-.007.002q-.003 0-.011.002l-.004.002a.2.2 0 0 0-.04.014l-.004.002a.1.1 0 0 0-.022.009q-.004 0-.004.002a.1.1 0 0 0-.022.011q-.004.002-.007.002l-.024.016-.005.002-.066.044-.002.003q0 .002-.007.004c-.008.009-.015.013-.024.02q-.007.006-.013.011l-.002.002h-.022q-.004.001-.005.005v.01c0 .003.005.005.005.005h.002q-.001 0-.002.003l-.013.01-.027.027-.011.014q-.02.019-.039.042a.38.38 0 0 0-.007.486q-.017.007-.018.024v.069c0 .015.013.029.031.029h.031v.359h-.031c-.018 0-.031.011-.031.027v.175c0 .015.013.029.031.029h.068l-.063 1.435h-.135c-.015 0-.028.011-.028.027v.264h-1.691v-.264a.026.026 0 0 0-.027-.027h-.136l-.064-1.435h.068c.018 0 .031-.014.031-.03V5.34q-.002-.026-.031-.027h-.031v-.36h.031c.018 0 .031-.013.031-.028v-.069q-.001-.016-.016-.024l.007-.01q.002-.006.009-.013l.013-.024.011-.018.004-.01a1 1 0 0 0 .027-.07.38.38 0 0 0-.082-.341 1 1 0 0 0-.092-.098q.002 0 .002-.002v-.011q0-.004-.004-.005h-.018c-.169-.15-.293-.15-.293-.15l-.013.002-.009.002h-.004l-.007.002-.011.002q-.003 0-.004.003a.2.2 0 0 0-.044.013l-.002.002q-.013.004-.022.01l-.007.001q-.01.004-.02.011-.003.004-.007.003l-.026.015-.004.002q-.03.02-.066.045v.002c-.005.002-.005.004-.009.007-.007.006-.016.01-.022.02l-.013.01h-.025q-.003.001-.004.005v.011q0 .006.004.005h.003q-.001 0-.003.002l-.013.013q-.013.011-.026.025l-.013.013-.038.044a.38.38 0 0 0-.009.484q-.014.008-.015.026v.067c0 .016.013.029.031.029h.031v.36h-.031c-.018 0-.031.013-.031.028v.173c0 .016.013.029.031.029h.068l-.064 1.435h-.136c-.016 0-.027.013-.027.029v.262h-1.973v-.493a.05.05 0 0 0-.053-.05h-.253l-.119-2.692h.13c.033 0 .057-.022.057-.05V3.66c0-.029-.024-.05-.057-.05h-.039v-.673h.057c.031 0 .057-.024.057-.053v-.127q-.002-.033-.033-.046l.015-.02.016-.022q.015-.023.026-.045l.018-.033q.007-.013.011-.022a.713.713 0 0 0-.104-.765c-.059-.071-.119-.13-.171-.182l.002-.007v-.02c0-.002-.005-.007-.011-.007h-.031c-.317-.281-.548-.281-.548-.281s-.011 0-.027.004h-.015l-.011.002q-.008.002-.011.002l-.02.007q-.006 0-.009.002-.033.009-.077.027-.005 0-.006.002l-.04.016-.011.006-.042.02-.011.005q-.024.013-.048.029-.004 0-.007.004a1 1 0 0 0-.123.084q-.002.001-.005.003l-.013.01-.046.038-.024.023v.002h-.042q-.01 0-.009.006v.02a.01.01 0 0 0 .009.01v.001q-.014.013-.027.025-.022.023-.048.046-.011.013-.022.025-.035.04-.075.08a.714.714 0 0 0-.015.91q-.029.013-.031.046v.126c0 .03.024.054.057.054h.057v.67h-.057c-.031 0-.057.024-.057.053v.326c0 .029.024.05.057.05h.13l-.119 2.692h-.253a.05.05 0 0 0-.051.05v.493h-1.347v1.737l1.827 1.167v.883h.397l-.403 2.431h-1.227v1.016h.458l-.528 3.175h-1.147v1.129h.515l-.628 3.773h-1.266v1.298h.584l-.703 4.222h-1.44v1.468h.661l-.758 4.548h-1.523v-1.81h.279v-.59h-.279v-8.486l1.314-2.903v-1.18h-2.173v-2.44h-1.379V14.83h-2.316v-1.906h-.229V11.7h-2.862v-.646h-.214v-.341h-.328c-.293-.826-1.139-1.423-2.14-1.423h-7.438c-1.002 0-1.85.597-2.14 1.423h-.723v.341h-.194v.646H81.3v1.224h-.227v1.906h-2.316v1.883h-1.379v2.44h-2.175v1.18l1.314 2.904v8.486h-.28v.59h.28v1.712h-1.36l-.113-2.526h.236c.03 0 .057-.025.057-.051v-.51c0-.03-.026-.052-.057-.052h-.26l-.117-2.617-.004-.122h.227a.05.05 0 0 0 .05-.051v-.51a.05.05 0 0 0-.05-.052h-.253l-.12-2.69h.13c.031 0 .058-.025.058-.052v-.326c0-.029-.027-.05-.057-.05h-.058v-.673h.058c.03 0 .057-.024.057-.053v-.127a.05.05 0 0 0-.031-.046l.013-.02q.009-.012.018-.022.014-.023.029-.045l.015-.033q.007-.013.01-.022a.6.6 0 0 0 .05-.129.72.72 0 0 0-.153-.636 2 2 0 0 0-.171-.182l.002-.007v-.02q-.001-.008-.009-.009h-.033c-.317-.28-.548-.282-.548-.282q0 0-.027.003-.006 0-.013.004h-.01q-.008.002-.014.005l-.018.004-.009.002a1 1 0 0 0-.079.024q-.003.003-.006.005-.02.006-.04.015-.004.003-.011.005-.018.01-.04.02l-.01.007a.3.3 0 0 0-.056.03q-.058.035-.123.085l-.005.002q-.006.004-.013.011-.022.02-.046.038l-.024.022v.002h-.042q-.01.002-.011.007v.022q0 .008.011.009h.002-.002l-.024.024q-.025.023-.049.05l-.024.024a1 1 0 0 0-.07.082.71.71 0 0 0-.016.907q-.031.015-.033.047v.126c0 .031.027.053.058.053h.057v.672h-.057c-.034 0-.058.025-.058.051v.327c0 .028.027.053.058.053h.13l-.12 2.689h-.253a.05.05 0 0 0-.05.053v.508c0 .03.022.053.05.053h.227l-.004.122-.117 2.615h-.196c-.03 0-.057.025-.057.051v.51c0 .03.024.052.057.052h.17l-.01.195-.1 2.334h-4.856l-.108-2.465h.234c.033 0 .057-.024.057-.051v-.51c0-.03-.024-.051-.057-.051h-.26l-.115-2.618-.006-.122h.227a.05.05 0 0 0 .052-.05v-.511a.05.05 0 0 0-.052-.051h-.254l-.118-2.691h.13c.032 0 .057-.024.057-.051v-.326c0-.029-.025-.051-.058-.051h-.057v-.672h.057c.031 0 .058-.025.058-.054v-.126c0-.022-.014-.038-.031-.047q.005-.01.013-.02l.015-.022.03-.044q.008-.016.017-.033l.01-.023a.713.713 0 0 0-.103-.765 2 2 0 0 0-.174-.182q.005-.003.005-.006v-.02q-.001-.009-.011-.01h-.031c-.317-.279-.549-.281-.549-.281l-.026.002-.013.002q-.004.002-.011.003-.004 0-.011.002l-.022.004-.009.002q-.032.009-.077.027-.003 0-.007.002l-.05.023-.04.02q-.007.003-.01.006a.2.2 0 0 0-.056.031 1 1 0 0 0-.126.085q-.001 0-.002.002l-.013.01q-.022.02-.046.038-.011.014-.024.023l-.002.002h-.042q-.009 0-.01.007v.022q.001.008.01.009l-.025.024-.048.049-.024.024a1 1 0 0 0-.073.082.71.71 0 0 0-.015.908q-.031.013-.033.046v.127c0 .03.026.053.057.053h.06v.672h-.06c-.03 0-.057.024-.057.051v.326c0 .029.026.053.057.053h.13l-.117 2.689h-.257a.054.054 0 0 0-.053.053v.508c0 .03.024.053.053.053h.226l-.004.123-.117 2.615h-.196c-.033 0-.057.024-.057.051v.51c0 .03.024.051.057.051h.17l-.01.195-.098 2.272h-3.578v-5.373h-.85v-1.384h-.683l-.072-1.755h.469v-1.368h-.529l-.055-1.336h.436v-.947h-.484l-.216-2.212h.231v-.597h-.377l-.12-2.484a.57.57 0 0 0 .422-.533c0-.31-.275-.563-.616-.563s-.615.253-.615.563c0 .249.176.46.42.533l-.118 2.484h-.379v.597h.231l-.213 2.212h-.485v.947h.434l-.055 1.335h-.526v1.37h.469l-.075 1.754h-.685v1.384h-.768V25.02h.185v-.344h-.126c.227-.384.93-1.857-.988-2.786-.747-.362-1.529-.482-2.105-1.394v-.534h-.023v-.708a.08.08 0 0 0 .062-.078c0-.044-.04-.08-.088-.08s-.088.038-.088.08c0 .038.026.067.062.078v.708h-.022v.548c-.577.898-1.355 1.018-2.099 1.38-1.918.929-1.215 2.402-.988 2.786h-.126v.344h.187v3.642h-.76v-7.176h.384v-.703h-.258c.465-.788 1.905-3.8-2.023-5.706-1.53-.741-3.13-.987-4.31-2.85v-1.099h-.046V9.68c.075-.022.128-.085.128-.16 0-.091-.082-.164-.18-.164-.102 0-.184.073-.184.164 0 .075.053.138.128.16v1.442h-.046v1.124c-1.18 1.842-2.77 2.088-4.294 2.827-3.928 1.903-2.49 4.918-2.023 5.703h-.258v.703h.383v7.179h-.76v-3.645h.188v-.344h-.126c.227-.381.93-1.854-.988-2.786-.75-.362-1.529-.482-2.105-1.391v-.537h-.023v-.705a.08.08 0 0 0 .062-.078c0-.046-.04-.082-.088-.082s-.088.038-.088.082c0 .035.026.067.062.078v.705h-.022v.548c-.577.9-1.354 1.02-2.096 1.38-1.92.932-1.218 2.405-.99 2.786h-.127v.344h.19v3.645h-.771V27.27h-.683l-.075-1.754h.47v-1.37h-.527l-.055-1.332h.434v-.948h-.485l-.213-2.211h.231v-.597h-.379l-.119-2.485c.245-.075.42-.284.42-.534 0-.31-.274-.562-.613-.562-.342 0-.617.251-.617.562 0 .25.178.461.423.534l-.121 2.485h-.377v.597h.231l-.215 2.211h-.485v.948h.436l-.055 1.333h-.528v1.369h.469l-.073 1.754h-.683v1.387h-.85v5.37h-3.578l-.099-2.269-.008-.195h.169c.033 0 .057-.025.057-.053v-.508c0-.031-.024-.054-.057-.054h-.196l-.117-2.615-.004-.122h.227a.053.053 0 0 0 .053-.051v-.51a.05.05 0 0 0-.053-.054h-.253l-.12-2.688h.13c.034 0 .058-.025.058-.053v-.324c0-.031-.024-.054-.057-.054h-.058v-.672h.058c.033 0 .057-.022.057-.05v-.13q-.002-.031-.033-.046a.71.71 0 0 0-.016-.907q-.036-.044-.072-.082l-.024-.025c-.016-.015-.031-.033-.047-.046l-.026-.025-.002-.002h.002q.009-.002.009-.009v-.02q-.001-.008-.01-.009h-.041l-.002-.002q-.012-.01-.022-.02-.026-.02-.049-.038l-.01-.013q-.005 0-.005-.002a2 2 0 0 0-.123-.085l-.01-.004-.046-.027-.01-.006-.053-.025q-.02-.008-.04-.017-.003 0-.007-.003a.5.5 0 0 0-.079-.024l-.009-.004-.017-.005q-.008 0-.014-.002-.003-.003-.01-.002h-.016q-.024-.004-.026-.003s-.23 0-.546.28h-.033q-.009 0-.01.009v.022q.002.004.003.005a2 2 0 0 0-.172.184.71.71 0 0 0-.103.763q.003.012.01.024.009.015.016.031l.029.047.015.022q.009.01.013.018a.05.05 0 0 0-.03.046v.129c0 .029.024.051.057.051h.057v.672h-.057c-.033 0-.057.025-.057.053v.324c0 .031.024.053.057.053h.13l-.12 2.69H21a.05.05 0 0 0-.051.052v.508c0 .031.022.054.05.054h.227l-.006.122-.115 2.615h-.26c-.03 0-.057.024-.057.053v.508c0 .03.024.054.058.054h.233l-.108 2.462h-4.855l-.101-2.332-.01-.195h.168c.033 0 .06-.024.06-.053v-.508c0-.031-.027-.053-.06-.053h-.196l-.114-2.616-.007-.122h.229c.026 0 .05-.024.05-.05v-.51c0-.03-.024-.054-.05-.054h-.256l-.116-2.689h.128c.033 0 .057-.024.057-.053v-.324c0-.031-.024-.053-.057-.053h-.058v-.672h.058c.033 0 .057-.023.057-.051v-.129a.05.05 0 0 0-.031-.047.71.71 0 0 0-.018-.907l-.07-.082-.024-.024-.049-.047-.024-.024q-.003-.001-.002-.003h.002q.007 0 .009-.009v-.02a.01.01 0 0 0-.009-.008h-.044v-.003q-.012-.01-.024-.02l-.046-.037-.014-.011q0-.003-.004-.005a2 2 0 0 0-.123-.084q-.004-.002-.007-.005c-.018-.008-.033-.02-.049-.026l-.013-.007-.04-.02-.008-.002q-.024-.012-.04-.018c-.004-.002-.004-.002-.009-.002a1 1 0 0 0-.077-.026h-.006l-.022-.007q-.008-.002-.014-.002l-.008-.003q-.01-.003-.016-.002l-.026-.002s-.23 0-.546.28h-.033a.01.01 0 0 0-.009.008v.023l.002.004a2 2 0 0 0-.172.184.71.71 0 0 0-.103.763q.004.013.011.025.007.015.018.03l.028.047q.006.012.016.022c.004.005.008.014.013.018a.05.05 0 0 0-.031.047v.128c0 .03.024.051.057.051h.057v.673h-.057c-.033 0-.057.024-.057.053v.324c0 .03.024.053.057.053h.128l-.117 2.689H14.1c-.027 0-.05.024-.05.053v.508c0 .03.023.053.05.053h.229l-.007.122-.114 2.616h-.26c-.03 0-.057.024-.057.053v.508c0 .029.024.053.057.053h.233l-.11 2.527h-1.836v2.447h-.467l-.174-5.941h.009l1.22-.777v-1.98h-1.31l-.144-4.876h.11l1.159-.74v-1.876h-1.343l-.159-5.415h.255l1.115-.708V12.35h-1.443l-.151-5.196h.394l1.068-.679V4.743H10.84l-.073-2.51h.383l.987-.63V0H6.289v1.604l.986.63h.385l-.074 2.509H6.053v1.732l1.068.68h.396l-.152 5.195H5.921v1.805l1.112.708h.258l-.159 5.415H5.789v1.877l1.156.738h.11l-.143 4.876H5.599v1.981l1.223.777h.008l-.174 5.94H5.192v2.203l1.359.868h.017l-.028 1.02H6.51v3.456H0v19.431h140.354zM128.369 7.864c0-.175.154-.32.346-.32s.348.145.348.32v.788h-.696v-.788zm-17.448.788h-.693v-.788c0-.175.154-.32.345-.32.194 0 .348.145.348.32zM11.439 21.139c0-.224.2-.406.445-.406.246 0 .447.182.447.406v.579h-.892zm-.086-7.962c0-.215.192-.39.43-.39.237 0 .427.175.427.39v.557h-.855v-.557zm-.086-7.64c0-.206.183-.375.41-.375s.41.169.41.375v.532h-.822v-.532zM11.113.739c0-.193.17-.349.379-.349s.38.156.38.349v.492h-.759zm-3.798.492h-.76V.74c0-.193.17-.349.379-.349s.379.156.379.349v.492zM7.163 6.07H6.34v-.532c0-.206.185-.375.412-.375.225 0 .41.169.41.375zm-.088 7.665H6.22v-.557c0-.215.192-.39.428-.39.235 0 .429.175.429.39v.557zm-.086 7.981h-.89v-.576c0-.226.198-.408.445-.408s.445.181.445.408zm1.2 14.18h-.251v-4.947h.25zm1.026-7.646c.26 0 .469.19.469.428v.61h-.938v-.61c0-.238.21-.428.469-.428m-.128-.932v-4.124h.254v4.124zm.828 3.631v4.947h-.25v-4.947zm-.574 0v4.947h-.254v-4.947zm-.126 6.05c.288 0 .522.215.522.479v.679H8.69v-.679c0-.264.233-.48.524-.48m2.647 2.544h.015l.359-.228v1.25h-.346zM123.45 36.89v3.676h-7.434v-3.676zm-7.004-2.764v-3.572h6.573v3.572zm10.525-26.26c0-.176.156-.32.35-.32.192 0 .346.144.346.32v.787h-.696zm-1.394 0c0-.176.156-.32.348-.32.189 0 .346.144.346.32v.787h-.696v-.788zm-1.396 0c0-.176.156-.32.348-.32s.346.144.346.32v.787h-.696v-.788zm-1.394 0c0-.176.154-.32.346-.32s.348.144.348.32v.787h-.696v-.788zm-1.396 0c0-.176.154-.32.346-.32s.348.144.348.32v.787h-.696v-.788zm-1.396 0c0-.176.157-.32.348-.32.192 0 .348.144.348.32v.787h-.696zm-1.396 0c0-.176.157-.32.348-.32.192 0 .348.144.348.32v.787h-.696zm3.109 3.766v1.843h-3.95v-1.843zm.3 3.536v2.5h-4.551v-2.5zm-4.803-7.303c0-.175.155-.32.346-.32.194 0 .348.145.348.32v.788h-.696v-.788zm-.046 11.715h5.146v3.01h-5.146zm-.334 5.173h5.815v3.357h-5.815zm-1.016-16.888c0-.175.155-.32.346-.32.194 0 .348.145.348.32v.788h-.694zm-1.396 0c0-.175.157-.32.348-.32.194 0 .348.145.348.32v.788h-.696zm-1.396 0c0-.175.157-.32.348-.32.194 0 .348.145.348.32v.788h-.696zm-1.393.788v-.788c0-.175.154-.32.345-.32.194 0 .348.145.348.32v.788zm-7.005 27.13h.604l-.604 3.645zm-19.37-3.114.007.004.108-.067.01.005v-.59l-.125-.056v-.341c0-1.924 1.46-4.217 5.322-4.217 3.827 0 5.322 2.293 5.322 4.217v.33l-.125.056v.59l.004-.005.115.071.006-.002v7.904H85.251v-7.9zM74.51 23.74h.195v.672h-.196zm-.575 0h.453v.672h-.453zm-.368 0h.246v.672h-.246zm-5.956.064h.196v.672h-.196zm-.575 0h.454v.672h-.454zm-.368 0h.245v.672h-.245zm-10.606 2.168c0-.36.317-.65.709-.65s.709.292.709.65v2.682h-1.42v-2.683zm-2.23.264c0-.466.413-.843.922-.843s.922.377.922.843v2.42H53.83zm-1.804-.264c0-.36.317-.65.709-.65s.711.292.711.65v2.682h-1.42zm-12.223 9.166c0-2.43 2.156-4.397 4.813-4.397 2.658 0 4.812 1.968 4.812 4.397v5.426h-9.623v-5.426zm-4.019-9.167c0-.359.32-.65.712-.65.394 0 .71.293.71.65v2.682h-1.42v-2.681zm-2.228.264c0-.465.412-.842.923-.842.51 0 .922.377.922.843v2.42h-1.845zm-1.803-.264c0-.359.319-.65.711-.65s.709.293.709.65v2.682h-1.42zm-9.433-2.167h.244v.672h-.244zm-.577 0h.454v.672h-.454zm-.317 0h.196v.672h-.196zm-6.005-.064h.247v.672h-.247zm-.577 0h.456v.672h-.456zm-.317 0h.196v.672h-.196zm-2.702 13.734c0-.229.174-.42.41-.466v1.145h-.41zm-.266-8.798c0-.238.21-.428.469-.428.26 0 .469.19.469.428v.61h-.938zm-.258 8.798v.678H10.26v-.678c0-.264.233-.477.522-.477.288 0 .521.215.521.477m-1.063-1.58v-4.947h.25v4.947zm.852-7.218v.61h-.938v-.61c0-.238.21-.428.469-.428.258 0 .469.19.469.428m-.852-1.36v-4.124h.25v4.124zm.755-5.602h-.89v-.576c0-.226.199-.408.445-.408.245 0 .445.181.445.408zm-.755-1.892v-4.798h.25v4.798zm.687-6.646v.557h-.857v-.557c0-.215.192-.39.427-.39.236 0 .43.175.43.39m-.687-1.076V7.534h.25V12.1zm.616-6.564v.532h-.819v-.532c0-.206.183-.375.41-.375s.41.169.41.375m-.616-.996V2.489h.25v2.052zM9.975.739c0-.193.17-.349.378-.349.21 0 .38.156.38.349v.492h-.76V.74zm-.31 1.75h.25v2.052h-.25zm0 5.045h.25V12.1h-.25zm0 7.49h.25v4.8h-.25zm0 8.169h.25v4.124h-.25zM8.834.739c0-.193.169-.349.378-.349s.38.156.38.349v.492h-.759zm.505 1.75v2.052h-.253V2.489zm-.537 3.048c0-.206.183-.375.41-.375s.41.169.41.375v.532h-.82zm.537 1.997V12.1h-.253V7.534zm-.554 5.643c0-.215.191-.39.429-.39.236 0 .427.175.427.39v.557h-.854v-.557zm.555 1.848v4.798h-.254v-4.798zm-.57 6.114c0-.224.197-.406.444-.406.244 0 .445.182.445.406v.579h-.89zm-.258-18.65h.25v2.052h-.25zm0 5.045h.25V12.1h-.25zm0 7.49h.25v4.8h-.25zm0 8.169h.25v4.124h-.25zm0 7.755h.25v4.947h-.25zM7.696.738c0-.192.17-.348.378-.348.21 0 .381.156.381.349v.492h-.76zm.493 1.751v2.052h-.251V2.489zm-.617 3.048c0-.206.185-.375.41-.375.227 0 .412.169.412.375v.532H7.57v-.532zm.617 1.997V12.1h-.251V7.534zm-.687 5.643c0-.215.191-.39.43-.39.237 0 .426.175.426.39v.557h-.854v-.557zm.687 1.848v4.798h-.251v-4.798zm-.755 6.114c0-.224.198-.406.444-.406.247 0 .445.182.445.406v.579h-.89zm.755 2.054v4.124h-.251v-4.124zm-.852 5.484c0-.238.211-.428.469-.428.257 0 .469.19.469.428v.61h-.938zm-.212 8.798c0-.264.234-.477.522-.477s.522.213.522.477v.678H7.125zM5.93 29.287v-.61c0-.238.209-.428.469-.428s.469.19.469.428v.61zm-.372 8.867v-.68c0-.263.233-.476.521-.476s.522.213.522.477v.678z"/><defs><linearGradient id="a" x1="70.401" x2="73.073" y1="-44.151" y2="55.888" gradientUnits="userSpaceOnUse"><stop stop-color="#ef9120"/><stop offset="1" stop-color="#fdf39f"/></linearGradient></defs></svg>