<svg width="141" height="46" viewBox="0 0 141 46" fill="none" xmlns="http://www.w3.org/2000/svg">
<path d="M140.354 44.0211H135.16V40.5649H135.037L134.242 35.7821H134.988V34.1228H133.323L132.568 29.5752H133.229V28.1066H131.789L131.086 23.8851H131.672V22.5873H130.404L129.776 18.8139H130.291V17.6648H129.144L128.616 14.4903H129.074V13.4743H127.85L127.444 11.043H127.841V10.1623L129.671 8.99323V7.25625H128.323V6.76378C128.323 6.73494 128.299 6.71275 128.272 6.71275H128.019L127.9 4.02188H128.03C128.061 4.02188 128.087 3.9997 128.087 3.97086V3.64476C128.087 3.61592 128.061 3.59374 128.03 3.59374H127.973V2.92158H128.03C128.061 2.92158 128.087 2.89718 128.087 2.86834V2.74189C128.087 2.71971 128.074 2.70418 128.054 2.69531C128.059 2.68865 128.065 2.682 128.07 2.67534C128.074 2.66869 128.081 2.65981 128.085 2.65316C128.094 2.63763 128.105 2.62432 128.112 2.60879C128.118 2.5977 128.125 2.58661 128.131 2.57551C128.136 2.56664 128.138 2.55999 128.142 2.55333C128.162 2.51118 128.178 2.46681 128.189 2.42467C128.252 2.17621 128.167 1.93885 128.039 1.788C127.977 1.71701 127.92 1.65933 127.865 1.60609C127.867 1.60387 127.867 1.60166 127.867 1.59944V1.57947C127.867 1.57725 127.865 1.57282 127.858 1.57282H127.825C127.51 1.29108 127.279 1.29108 127.279 1.29108C127.279 1.29108 127.27 1.29108 127.253 1.29552C127.248 1.29552 127.244 1.29552 127.24 1.29552C127.235 1.29552 127.233 1.29774 127.229 1.29774C127.224 1.29996 127.22 1.29996 127.215 1.29996C127.211 1.30218 127.204 1.3044 127.196 1.30661C127.193 1.30661 127.189 1.30661 127.187 1.30883C127.165 1.31549 127.138 1.32214 127.11 1.33545C127.107 1.33545 127.105 1.33545 127.103 1.33767C127.09 1.34211 127.077 1.34654 127.063 1.3532C127.061 1.35542 127.057 1.35764 127.052 1.35985C127.039 1.36651 127.026 1.37316 127.011 1.37982C127.008 1.38204 127.004 1.38426 127 1.38426C126.984 1.39313 126.969 1.402 126.953 1.41309C126.949 1.41309 126.949 1.41531 126.945 1.41531C126.907 1.43971 126.865 1.46634 126.823 1.50183C126.821 1.50183 126.821 1.50405 126.819 1.50405C126.815 1.50627 126.81 1.5107 126.806 1.51514C126.79 1.52845 126.775 1.54176 126.76 1.55285C126.751 1.56172 126.744 1.56838 126.735 1.57503V1.57725H126.694C126.687 1.57725 126.683 1.57947 126.683 1.58391V1.60387C126.683 1.60831 126.687 1.61275 126.694 1.61275V1.61497C126.685 1.62384 126.676 1.63049 126.667 1.63937C126.652 1.6549 126.636 1.67042 126.619 1.68595C126.612 1.69483 126.603 1.70148 126.597 1.71035C126.572 1.73697 126.548 1.7636 126.522 1.79022C126.348 1.99652 126.251 2.36033 126.506 2.69974C126.487 2.70862 126.473 2.72414 126.473 2.74633V2.87277C126.473 2.90161 126.5 2.92602 126.531 2.92602H126.588V3.59596H126.531C126.5 3.59596 126.473 3.62036 126.473 3.6492V3.9753C126.473 4.00414 126.5 4.02632 126.531 4.02632H126.66L126.542 6.71719H126.288C126.26 6.71719 126.238 6.74159 126.238 6.76821V7.26069H124.573V6.99892C124.573 6.98339 124.56 6.97008 124.544 6.97008H124.408L124.346 5.5348H124.415C124.432 5.5348 124.445 5.52149 124.445 5.50597V5.33293C124.445 5.31741 124.432 5.3041 124.415 5.3041H124.384V4.94472H124.415C124.432 4.94472 124.445 4.93141 124.445 4.91588V4.84933C124.445 4.83824 124.439 4.82937 124.428 4.82271C124.432 4.82049 124.434 4.81606 124.434 4.81384C124.439 4.8094 124.441 4.80496 124.443 4.80053C124.45 4.79165 124.454 4.785 124.459 4.77613C124.463 4.77169 124.465 4.76503 124.467 4.75838C124.47 4.75616 124.472 4.75172 124.474 4.74729C124.485 4.7251 124.494 4.7007 124.498 4.67852C124.531 4.54542 124.485 4.41897 124.419 4.33689C124.386 4.29918 124.355 4.26812 124.326 4.2415C124.326 4.23928 124.326 4.23928 124.326 4.23707V4.22597C124.326 4.22375 124.324 4.22154 124.322 4.22154H124.307C124.137 4.07291 124.014 4.07291 124.014 4.07291C124.014 4.07291 124.009 4.07291 124.001 4.07291C123.996 4.07291 123.996 4.07291 123.994 4.07512C123.992 4.07512 123.99 4.07734 123.987 4.07734C123.985 4.07734 123.983 4.07734 123.981 4.07734C123.976 4.07956 123.974 4.07956 123.97 4.07956C123.968 4.07956 123.965 4.07956 123.965 4.08178C123.954 4.084 123.939 4.08844 123.924 4.09509C123.921 4.09509 123.919 4.09731 123.919 4.09731C123.913 4.09953 123.904 4.10396 123.897 4.10618C123.897 4.1084 123.893 4.1084 123.893 4.1084C123.884 4.11062 123.877 4.11506 123.868 4.11949C123.868 4.12171 123.864 4.12171 123.864 4.12393C123.855 4.12837 123.846 4.1328 123.838 4.13724C123.838 4.13946 123.835 4.13946 123.833 4.13946C123.813 4.15277 123.791 4.16608 123.767 4.18604C123.767 4.18604 123.767 4.18604 123.765 4.18604C123.765 4.18826 123.761 4.19048 123.758 4.1927C123.75 4.19935 123.741 4.20601 123.734 4.21266C123.73 4.2171 123.725 4.21932 123.721 4.22375H123.699C123.695 4.22375 123.695 4.22597 123.695 4.22819V4.2415C123.695 4.24372 123.695 4.24372 123.699 4.24372C123.699 4.24372 123.699 4.24372 123.699 4.24594C123.695 4.25037 123.69 4.25481 123.684 4.25925C123.675 4.26812 123.668 4.27478 123.659 4.28365C123.655 4.28809 123.65 4.29252 123.646 4.29696C123.633 4.31027 123.62 4.3258 123.606 4.34133C123.514 4.45003 123.461 4.64524 123.598 4.82493C123.589 4.82937 123.58 4.84046 123.58 4.85155V4.9181C123.58 4.93363 123.593 4.94694 123.611 4.94694H123.642V5.30631H123.611C123.593 5.30631 123.58 5.31962 123.58 5.33515V5.50818C123.58 5.52371 123.593 5.53702 123.611 5.53702H123.679L123.617 6.9723H123.481C123.466 6.9723 123.452 6.98561 123.452 7.00114V7.26291H121.684V7.00114C121.684 6.98561 121.673 6.9723 121.658 6.9723H121.521L121.457 5.53702H121.526C121.543 5.53702 121.556 5.52371 121.556 5.50818V5.33515C121.556 5.31962 121.543 5.30631 121.526 5.30631H121.495V4.94694H121.526C121.543 4.94694 121.556 4.93363 121.556 4.9181V4.85155C121.556 4.84046 121.55 4.83159 121.541 4.82493C121.543 4.82271 121.545 4.81827 121.548 4.81606C121.55 4.81162 121.554 4.80718 121.556 4.80275C121.561 4.79387 121.565 4.78722 121.572 4.77834C121.574 4.77391 121.576 4.76725 121.581 4.76282C121.583 4.75838 121.585 4.75394 121.587 4.74951C121.598 4.72732 121.607 4.70514 121.612 4.68074C121.647 4.54764 121.601 4.42341 121.532 4.34133C121.499 4.30362 121.468 4.27256 121.44 4.24372C121.44 4.2415 121.44 4.2415 121.44 4.2415V4.22819C121.44 4.22597 121.438 4.22375 121.435 4.22375H121.418C121.25 4.07512 121.127 4.07512 121.127 4.07512C121.127 4.07512 121.12 4.07513 121.112 4.07734C121.109 4.07734 121.107 4.07734 121.105 4.07734C121.103 4.07734 121.101 4.07956 121.098 4.07956C121.096 4.07956 121.096 4.07956 121.092 4.07956C121.09 4.08178 121.085 4.08178 121.081 4.084C121.081 4.084 121.079 4.084 121.076 4.084C121.065 4.08844 121.052 4.09287 121.035 4.09953C121.032 4.09953 121.032 4.09953 121.03 4.09953C121.024 4.10396 121.017 4.10618 121.01 4.1084C121.008 4.11062 121.006 4.11062 121.004 4.11062C120.997 4.11506 120.991 4.11949 120.982 4.12393C120.98 4.12393 120.977 4.12393 120.975 4.12615C120.969 4.13058 120.96 4.13502 120.951 4.13946C120.949 4.14168 120.949 4.14168 120.947 4.14389C120.925 4.15499 120.903 4.17051 120.88 4.18826C120.88 4.19048 120.878 4.19048 120.878 4.19048C120.876 4.19048 120.874 4.1927 120.869 4.19492C120.863 4.20157 120.854 4.20823 120.845 4.21488C120.841 4.21932 120.836 4.22154 120.832 4.22597C120.832 4.22597 120.832 4.22597 120.832 4.22819H120.81C120.808 4.22819 120.806 4.22819 120.806 4.23263V4.24372C120.806 4.24594 120.808 4.24816 120.81 4.24816C120.806 4.25259 120.801 4.25703 120.797 4.26147C120.788 4.27034 120.779 4.27921 120.77 4.28809C120.766 4.29031 120.762 4.29474 120.757 4.29918C120.746 4.31471 120.733 4.32802 120.72 4.34355C120.627 4.45446 120.574 4.64746 120.711 4.82937C120.7 4.8338 120.691 4.84268 120.691 4.85377V4.92254C120.691 4.93807 120.707 4.95138 120.724 4.95138H120.755V5.30853H120.724C120.707 5.30853 120.691 5.32184 120.691 5.33737V5.51262C120.691 5.52815 120.707 5.53924 120.724 5.53924H120.792L120.729 6.97452H120.592C120.577 6.97452 120.563 6.98783 120.563 7.00336V7.26734H119.106V7.00336C119.106 6.98783 119.093 6.97452 119.077 6.97452H118.943L118.879 5.53924H118.947C118.965 5.53924 118.978 5.52815 118.978 5.51262V5.33737C118.978 5.32184 118.965 5.30853 118.947 5.30853H118.916V4.95138H118.947C118.965 4.95138 118.978 4.93807 118.978 4.92254V4.85377C118.978 4.84268 118.971 4.8338 118.963 4.82937C118.965 4.82493 118.967 4.82271 118.969 4.81827C118.971 4.81384 118.974 4.8094 118.978 4.80497C118.982 4.79831 118.987 4.78944 118.993 4.78278C118.996 4.77613 119 4.77169 119.002 4.76503C119.004 4.7606 119.007 4.75616 119.009 4.75172C119.02 4.72954 119.029 4.70736 119.033 4.68517C119.066 4.55207 119.02 4.42563 118.954 4.34355C118.923 4.30583 118.89 4.27478 118.861 4.24594C118.861 4.24372 118.861 4.24372 118.861 4.24372V4.23263C118.861 4.22819 118.861 4.22819 118.857 4.22819H118.839C118.672 4.07734 118.546 4.07734 118.546 4.07734C118.546 4.07734 118.542 4.07734 118.533 4.07956C118.531 4.07956 118.529 4.07956 118.527 4.07956C118.524 4.07956 118.522 4.08178 118.52 4.08178C118.518 4.08178 118.516 4.084 118.513 4.084C118.511 4.084 118.507 4.084 118.502 4.08622C118.5 4.08622 118.5 4.08622 118.498 4.08844C118.487 4.09065 118.474 4.09509 118.458 4.10175C118.456 4.10175 118.454 4.10396 118.454 4.10396C118.445 4.10618 118.439 4.1084 118.432 4.11284C118.43 4.11284 118.428 4.11284 118.428 4.11506C118.419 4.11727 118.412 4.12171 118.406 4.12615C118.403 4.12837 118.401 4.12837 118.399 4.12837C118.392 4.1328 118.384 4.13946 118.375 4.14389C118.373 4.14389 118.373 4.14389 118.37 4.14611C118.348 4.15942 118.328 4.17273 118.304 4.19048C118.302 4.1927 118.302 4.1927 118.302 4.1927C118.302 4.1927 118.3 4.19713 118.295 4.19713C118.287 4.20601 118.28 4.21045 118.271 4.2171C118.267 4.22154 118.262 4.22375 118.258 4.22819C118.258 4.22819 118.258 4.22819 118.256 4.23041H118.234C118.232 4.23041 118.229 4.23263 118.229 4.23485V4.24594C118.229 4.24816 118.234 4.25038 118.234 4.25038H118.236C118.236 4.25038 118.234 4.25038 118.234 4.25259C118.229 4.25703 118.225 4.25925 118.221 4.26369C118.212 4.27256 118.203 4.28143 118.194 4.29031C118.19 4.29474 118.185 4.29918 118.183 4.30362C118.17 4.31693 118.157 4.33024 118.144 4.34576C118.051 4.45668 117.998 4.64968 118.137 4.83159C118.126 4.83602 118.119 4.8449 118.119 4.85599V4.92476C118.119 4.94028 118.132 4.9536 118.15 4.9536H118.181V5.31297H118.15C118.132 5.31297 118.119 5.32406 118.119 5.33959V5.51484C118.119 5.53037 118.132 5.54368 118.15 5.54368H118.218L118.155 6.97896H118.02C118.005 6.97896 117.992 6.99005 117.992 7.00558V7.26956H116.301V7.00558C116.301 6.99005 116.29 6.97896 116.274 6.97896H116.138L116.074 5.54368H116.142C116.16 5.54368 116.173 5.53037 116.173 5.51484V5.33959C116.173 5.32406 116.16 5.31297 116.142 5.31297H116.111V4.9536H116.142C116.16 4.9536 116.173 4.94028 116.173 4.92476V4.85599C116.173 4.8449 116.166 4.83824 116.157 4.83159C116.16 4.82937 116.162 4.82493 116.164 4.82271C116.166 4.81828 116.168 4.81384 116.173 4.8094C116.177 4.80053 116.182 4.79387 116.186 4.785C116.19 4.77835 116.193 4.77391 116.197 4.76725C116.199 4.76282 116.201 4.75838 116.201 4.75616C116.212 4.73176 116.221 4.70958 116.228 4.68739C116.263 4.55429 116.215 4.42784 116.146 4.34576C116.116 4.30805 116.085 4.277 116.054 4.24816C116.056 4.24816 116.056 4.24816 116.056 4.24594V4.23485C116.056 4.23263 116.054 4.23041 116.052 4.23041H116.034C115.865 4.07956 115.741 4.07956 115.741 4.07956C115.741 4.07956 115.735 4.07956 115.728 4.08178C115.726 4.08178 115.724 4.08178 115.719 4.084H115.715C115.713 4.084 115.71 4.08622 115.708 4.08622C115.704 4.08843 115.699 4.08844 115.697 4.08844C115.695 4.08844 115.693 4.08844 115.693 4.09065C115.68 4.09287 115.664 4.09731 115.649 4.10396L115.647 4.10618C115.638 4.1084 115.631 4.11284 115.625 4.11506C115.622 4.11506 115.62 4.11506 115.618 4.11727C115.611 4.11949 115.605 4.12393 115.598 4.12837C115.596 4.13058 115.594 4.13058 115.591 4.13058C115.583 4.13502 115.574 4.14168 115.565 4.14611C115.565 4.14611 115.563 4.14611 115.561 4.14833C115.541 4.16164 115.519 4.17495 115.495 4.1927C115.495 4.19492 115.495 4.19492 115.495 4.19492C115.49 4.19713 115.49 4.19935 115.486 4.20157C115.479 4.20823 115.47 4.21266 115.464 4.22154C115.459 4.22375 115.455 4.22819 115.451 4.23263C115.451 4.23263 115.451 4.23263 115.448 4.23263H115.426C115.424 4.23263 115.422 4.23485 115.422 4.23707V4.24816C115.422 4.25259 115.424 4.25259 115.426 4.25259H115.429C115.429 4.25259 115.426 4.25259 115.426 4.25481C115.422 4.25925 115.418 4.26369 115.413 4.26812C115.404 4.27478 115.396 4.28365 115.387 4.29252C115.382 4.29696 115.378 4.3014 115.374 4.30583C115.363 4.31914 115.349 4.33467 115.336 4.3502C115.244 4.4589 115.191 4.65412 115.327 4.8338C115.318 4.83824 115.312 4.84933 115.312 4.86042V4.92697C115.312 4.9425 115.325 4.95581 115.343 4.95581H115.374V5.31519H115.343C115.325 5.31519 115.312 5.3285 115.312 5.34403V5.51706C115.312 5.53259 115.325 5.5459 115.343 5.5459H115.411L115.347 6.98117H115.211C115.195 6.98117 115.184 6.99448 115.184 7.01001V7.27178H113.211V6.7793C113.211 6.75047 113.187 6.72828 113.158 6.72828H112.905L112.786 4.03741H112.916C112.949 4.03741 112.973 4.01523 112.973 3.98639V3.66029C112.973 3.63145 112.949 3.60927 112.916 3.60927H112.877V2.93711H112.934C112.965 2.93711 112.991 2.9127 112.991 2.88387V2.75742C112.991 2.73524 112.978 2.71971 112.958 2.71083C112.962 2.70418 112.969 2.69752 112.973 2.69087C112.978 2.68421 112.984 2.67534 112.989 2.66869C112.998 2.65316 113.009 2.63985 113.015 2.62432C113.022 2.61323 113.028 2.60213 113.033 2.59104C113.037 2.58217 113.042 2.57551 113.044 2.56886C113.064 2.52671 113.079 2.48234 113.09 2.44019C113.156 2.19174 113.068 1.95437 112.94 1.80353C112.881 1.73254 112.821 1.67486 112.769 1.62162C112.769 1.6194 112.771 1.61718 112.771 1.61497V1.595C112.771 1.59278 112.766 1.58834 112.76 1.58834H112.729C112.412 1.30661 112.181 1.30661 112.181 1.30661C112.181 1.30661 112.17 1.30661 112.154 1.31105C112.154 1.31105 112.154 1.31105 112.152 1.31105C112.148 1.31105 112.143 1.31105 112.139 1.31105C112.134 1.31105 112.132 1.31327 112.128 1.31327C112.123 1.31549 112.119 1.31549 112.117 1.31549C112.108 1.31771 112.104 1.31992 112.097 1.32214C112.093 1.32214 112.09 1.32214 112.088 1.32436C112.066 1.33102 112.04 1.33767 112.011 1.35098C112.007 1.35098 112.007 1.35098 112.005 1.3532C111.991 1.35764 111.978 1.36207 111.965 1.36873C111.961 1.37095 111.956 1.37316 111.954 1.37538C111.941 1.38204 111.925 1.38869 111.912 1.39535C111.908 1.39757 111.903 1.39978 111.901 1.39978C111.886 1.40866 111.868 1.41753 111.853 1.42862C111.85 1.42862 111.848 1.43084 111.846 1.43306C111.806 1.45524 111.767 1.48186 111.723 1.51736C111.721 1.51736 111.721 1.51958 111.718 1.51958C111.714 1.52179 111.71 1.52623 111.705 1.53067C111.69 1.54398 111.674 1.55729 111.659 1.56838C111.65 1.57725 111.643 1.58391 111.635 1.59056V1.59278H111.593C111.586 1.59278 111.584 1.595 111.584 1.59944V1.6194C111.584 1.62384 111.588 1.62828 111.593 1.62828V1.63049C111.584 1.63937 111.575 1.64602 111.566 1.6549C111.551 1.67042 111.536 1.68595 111.518 1.70148C111.511 1.71035 111.503 1.71701 111.496 1.72588C111.472 1.7525 111.448 1.77912 111.421 1.80574C111.247 2.01427 111.15 2.37586 111.406 2.71527C111.388 2.72414 111.375 2.73967 111.375 2.76186V2.8883C111.375 2.91714 111.399 2.94154 111.432 2.94154H111.489V3.61149H111.432C111.401 3.61149 111.375 3.63589 111.375 3.66473V3.99083C111.375 4.01967 111.399 4.04185 111.432 4.04185H111.562L111.443 6.73272H111.19C111.161 6.73272 111.139 6.75712 111.139 6.78374V7.27622H109.792V9.01319L111.619 10.18V11.063H112.016L111.613 13.4943H110.386V14.5103H110.844L110.316 17.6848H109.169V18.8139H109.684L109.056 22.5873H107.79V23.8851H108.374L107.671 28.1066H106.231V29.5752H106.892L106.134 34.1228H104.611V32.3126H104.89V31.7225H104.611V23.2373L105.925 20.3335V19.1533H103.752V16.7131H102.373V14.8297H100.057V12.9242H99.828V11.6996H96.9655V11.0541H96.752V10.7125H96.4239C96.131 9.88722 95.2855 9.29049 94.2836 9.29049H86.8456C85.8437 9.29049 84.9959 9.88722 84.7053 10.7125H83.9831V11.0541H83.7893V11.6996H81.2989V12.9242H81.0721V14.8297H78.7557V16.7131H77.3773V19.1533H75.2019V20.3335L76.5164 23.2373V31.7225H76.2367V32.3126H76.5164V34.0252H75.1556L75.0433 31.4985H75.2789C75.3097 31.4985 75.3362 31.4741 75.3362 31.4475V30.9372C75.3362 30.9084 75.3097 30.8862 75.2789 30.8862H75.0191L74.9024 28.2685L74.898 28.1465H75.1248C75.1534 28.1465 75.1754 28.1244 75.1754 28.0955V27.5853C75.1754 27.5587 75.1534 27.5343 75.1248 27.5343H74.8716L74.7527 24.8434H74.8826C74.9134 24.8434 74.9398 24.819 74.9398 24.7924V24.4663C74.9398 24.4374 74.9134 24.4153 74.8826 24.4153H74.8253V23.7431H74.8826C74.9134 23.7431 74.9398 23.7187 74.9398 23.6899V23.5634C74.9398 23.5434 74.9266 23.5257 74.909 23.5168C74.9134 23.5102 74.9178 23.5035 74.9222 23.4969C74.9288 23.4902 74.9332 23.4813 74.9398 23.4747C74.9486 23.4591 74.9596 23.4458 74.9685 23.4303C74.9751 23.4192 74.9795 23.4081 74.9839 23.397C74.9883 23.3882 74.9927 23.3815 74.9949 23.3748C75.0169 23.3327 75.0323 23.2883 75.0433 23.2462C75.1072 22.9977 75.0191 22.7604 74.8914 22.6095C74.8319 22.5385 74.7747 22.4786 74.7196 22.4276C74.7196 22.4254 74.7218 22.4232 74.7218 22.421V22.401C74.7218 22.3965 74.7174 22.3921 74.713 22.3921H74.68C74.3629 22.1126 74.1317 22.1104 74.1317 22.1104C74.1317 22.1104 74.1229 22.1104 74.1053 22.1126C74.1009 22.1126 74.0965 22.1148 74.0921 22.117C74.0877 22.117 74.0855 22.117 74.0811 22.117C74.0767 22.1193 74.0723 22.1193 74.0679 22.1215C74.0635 22.1215 74.0569 22.1237 74.0503 22.1259C74.0459 22.1281 74.0436 22.1281 74.0414 22.1281C74.0194 22.1326 73.9908 22.1414 73.9622 22.1525C73.96 22.1547 73.9578 22.1547 73.9556 22.157C73.9424 22.1614 73.9291 22.1658 73.9159 22.1725C73.9137 22.1747 73.9093 22.1747 73.9049 22.1769C73.8939 22.1836 73.8785 22.1902 73.8653 22.1969C73.8609 22.1991 73.8587 22.2013 73.8543 22.2036C73.8389 22.2102 73.8213 22.2191 73.8058 22.2302C73.8036 22.2302 73.8014 22.2324 73.7992 22.2346C73.7596 22.2568 73.72 22.2856 73.6759 22.3189C73.6737 22.3189 73.6737 22.3189 73.6715 22.3211C73.6671 22.3233 73.6627 22.3278 73.6583 22.3322C73.6429 22.3455 73.6275 22.3566 73.6121 22.3699C73.6033 22.3788 73.5967 22.3855 73.5879 22.3921C73.5879 22.3943 73.5879 22.3943 73.5879 22.3943H73.546C73.5394 22.3943 73.535 22.3988 73.535 22.401V22.4232C73.535 22.4276 73.5394 22.432 73.546 22.432H73.5482C73.546 22.432 73.546 22.432 73.546 22.432C73.5372 22.4409 73.5306 22.4476 73.5218 22.4564C73.5064 22.472 73.4888 22.4875 73.4734 22.5052C73.4645 22.5141 73.4579 22.5208 73.4491 22.5297C73.4249 22.5541 73.4007 22.5807 73.3787 22.6117C73.2047 22.8158 73.1056 23.1796 73.3633 23.519C73.3434 23.5279 73.3302 23.5457 73.3302 23.5656V23.6921C73.3302 23.7231 73.3567 23.7453 73.3875 23.7453H73.4447V24.4175H73.3875C73.3544 24.4175 73.3302 24.4419 73.3302 24.4685V24.7946C73.3302 24.8234 73.3567 24.8478 73.3875 24.8478H73.5174L73.3985 27.5365H73.1453C73.1166 27.5365 73.0946 27.5609 73.0946 27.5897V28.0977C73.0946 28.1288 73.1166 28.151 73.1453 28.151H73.3721L73.3677 28.273L73.251 30.8884H73.055C73.0242 30.8884 72.9977 30.9128 72.9977 30.9394V31.4497C72.9977 31.4785 73.022 31.5007 73.055 31.5007H73.2245L73.2157 31.6959L73.1144 34.0296H68.2592L68.1513 31.565H68.3847C68.4178 31.565 68.442 31.5406 68.442 31.514V31.0038C68.442 30.9749 68.4178 30.9528 68.3847 30.9528H68.1249L68.0104 28.3351L68.0038 28.2131H68.2306C68.2592 28.2131 68.2834 28.1909 68.2834 28.1621V27.6518C68.2834 27.623 68.2592 27.6008 68.2306 27.6008H67.9774L67.8585 24.91H67.9884C68.0214 24.91 68.0456 24.8855 68.0456 24.8589V24.5328C68.0456 24.504 68.0214 24.4818 67.9884 24.4818H67.9311V23.8096H67.9884C68.0192 23.8096 68.0456 23.7852 68.0456 23.7564V23.63C68.0456 23.6078 68.0324 23.5922 68.0148 23.5834C68.017 23.5767 68.0236 23.5701 68.028 23.5634C68.0324 23.5568 68.039 23.5479 68.0434 23.5412C68.0522 23.5257 68.0633 23.5124 68.0721 23.4969C68.0787 23.4858 68.0831 23.4747 68.0897 23.4636C68.0941 23.4569 68.0963 23.4481 68.1007 23.4414C68.1205 23.397 68.1359 23.3549 68.1469 23.3127C68.213 23.0643 68.1249 22.8269 67.9972 22.6761C67.9355 22.6051 67.8783 22.5452 67.8232 22.4942C67.8255 22.4919 67.8277 22.4897 67.8277 22.4875V22.4675C67.8277 22.4631 67.8232 22.4587 67.8166 22.4587H67.7858C67.4687 22.1791 67.2375 22.1769 67.2375 22.1769C67.2375 22.1769 67.2287 22.1769 67.2111 22.1791C67.2067 22.1791 67.2045 22.1814 67.1979 22.1814C67.1957 22.1814 67.1913 22.1836 67.1869 22.1836C67.1847 22.1836 67.1803 22.1836 67.1759 22.1858C67.1693 22.188 67.1627 22.188 67.1539 22.1902C67.1517 22.1902 67.1495 22.1902 67.1451 22.1925C67.123 22.1991 67.0988 22.2058 67.068 22.2191C67.0658 22.2191 67.0636 22.2191 67.0614 22.2213C67.0482 22.2257 67.0372 22.2302 67.0218 22.2368C67.0196 22.239 67.0152 22.2413 67.0107 22.2435C66.9975 22.2501 66.9843 22.2568 66.9711 22.2634C66.9667 22.2657 66.9623 22.2679 66.9601 22.2701C66.9425 22.2768 66.9271 22.2856 66.9117 22.2967C66.9095 22.2967 66.9073 22.2989 66.9051 22.3012C66.8654 22.3233 66.8236 22.35 66.7795 22.3855C66.7795 22.3855 66.7773 22.3855 66.7773 22.3877C66.7729 22.3899 66.7685 22.3943 66.7641 22.3988C66.7487 22.4121 66.7333 22.4232 66.7179 22.4365C66.7113 22.4454 66.7025 22.452 66.6937 22.4587C66.6915 22.4609 66.6915 22.4609 66.6915 22.4609H66.6496C66.6452 22.4609 66.6408 22.4631 66.6408 22.4675V22.4897C66.6408 22.4942 66.6452 22.4986 66.6496 22.4986C66.6408 22.5075 66.6342 22.5141 66.6254 22.523C66.61 22.5385 66.5946 22.5541 66.577 22.5718C66.5682 22.5807 66.5616 22.5873 66.5527 22.5962C66.5285 22.6206 66.5043 22.6472 66.4801 22.6783C66.3061 22.8824 66.207 23.2462 66.4647 23.5856C66.4449 23.5945 66.4316 23.61 66.4316 23.6322V23.7586C66.4316 23.7897 66.4581 23.8119 66.4889 23.8119H66.5483V24.484H66.4889C66.4581 24.484 66.4316 24.5084 66.4316 24.535V24.8611C66.4316 24.89 66.4581 24.9144 66.4889 24.9144H66.6188L66.5021 27.603H66.2445C66.2159 27.603 66.1916 27.6274 66.1916 27.6563V28.1643C66.1916 28.1931 66.2159 28.2175 66.2445 28.2175H66.4713L66.4669 28.3395L66.3502 30.955H66.1542C66.1212 30.955 66.097 30.9794 66.097 31.006V31.5162C66.097 31.5451 66.1212 31.5672 66.1542 31.5672H66.3237L66.3149 31.7625L66.2159 34.0341H62.6378V28.6612H61.7878V27.2769H61.1052L61.0326 25.5222H61.5016V24.1535H60.9731L60.9181 22.818H61.354V21.8708H60.8696L60.6538 19.6591H60.885V19.0624H60.5085L60.3874 16.5778C60.6318 16.5046 60.8102 16.2938 60.8102 16.0454C60.8102 15.7348 60.5349 15.4819 60.1936 15.4819C59.8545 15.4819 59.5793 15.7348 59.5793 16.0454C59.5793 16.2938 59.7555 16.5046 59.9999 16.5778L59.881 19.0624H59.5022V19.6591H59.7334L59.5198 21.8708H59.0354V22.818H59.4692L59.4142 24.1535H58.8879V25.5222H59.3569L59.282 27.2769H58.5972V28.6612H57.8288V25.0187H58.0137V24.6748H57.8882C58.115 24.291 58.8174 22.818 56.8996 21.8885C56.1531 21.527 55.3714 21.4072 54.7945 20.4954V19.9608H54.7725V19.2531C54.81 19.2443 54.8342 19.2132 54.8342 19.1755C54.8342 19.1311 54.7945 19.0956 54.7461 19.0956C54.6977 19.0956 54.658 19.1333 54.658 19.1755C54.658 19.2132 54.6844 19.242 54.7197 19.2531V19.9608H54.6977V20.5087C54.1208 21.4072 53.3435 21.527 52.5992 21.8885C50.6814 22.818 51.3838 24.291 51.6106 24.6748H51.4851V25.0187H51.6722V28.6612H50.9126V21.4848H51.2957V20.7816H51.0381C51.5027 19.9941 52.9427 16.9815 49.0145 15.076C47.4842 14.335 45.8856 14.0888 44.7054 12.2254V11.1273H44.6591V9.6787C44.734 9.65652 44.7869 9.5944 44.7869 9.51898C44.7869 9.42802 44.7054 9.35482 44.6063 9.35482C44.505 9.35482 44.4235 9.42802 44.4235 9.51898C44.4235 9.5944 44.4764 9.65652 44.5513 9.6787V11.1206H44.505V12.2453C43.3248 14.0866 41.735 14.3328 40.2113 15.0715C36.2831 16.9749 37.7209 19.9896 38.1877 20.7749H37.9301V21.4781H38.3132V28.6568H37.5536V25.012H37.7407V24.6681H37.6152C37.842 24.2866 38.5444 22.8136 36.6266 21.8819C35.8779 21.5203 35.0985 21.4005 34.5216 20.491V19.9541H34.4995V19.2487C34.537 19.2376 34.5612 19.2065 34.5612 19.1711C34.5612 19.1245 34.5216 19.089 34.4731 19.089C34.4247 19.089 34.385 19.1267 34.385 19.1711C34.385 19.2065 34.4115 19.2376 34.4467 19.2487V19.9541H34.4247V20.5021C33.8478 21.4027 33.0705 21.5225 32.3285 21.8819C30.4084 22.8136 31.1108 24.2866 31.3398 24.6681H31.2121V25.012H31.4014V28.6568H30.6308V27.2703H29.9482L29.8733 25.5156H30.3423V24.1468H29.8161L29.761 22.8136H30.1948V21.8664H29.7104L29.4968 19.6547H29.728V19.0579H29.3493L29.2304 16.5734C29.4748 16.4979 29.6509 16.2894 29.6509 16.0387C29.6509 15.7282 29.3757 15.4775 29.0366 15.4775C28.6953 15.4775 28.4201 15.7282 28.4201 16.0387C28.4201 16.2894 28.5984 16.5002 28.8428 16.5734L28.7217 19.0579H28.3452V19.6547H28.5764L28.3606 21.8664H27.8762V22.8136H28.3122L28.2571 24.1468H27.7287V25.5156H28.1977L28.125 27.2703H27.4424V28.6568H26.5925V34.0274H23.0144L22.9153 31.758L22.9065 31.5628H23.076C23.1091 31.5628 23.1333 31.5384 23.1333 31.5096V31.0016C23.1333 30.9705 23.1091 30.9483 23.076 30.9483H22.8801L22.7634 28.3329L22.7589 28.2109H22.9857C23.0144 28.2109 23.0386 28.1865 23.0386 28.1598V27.6496C23.0386 27.6208 23.0166 27.5964 22.9857 27.5964H22.7325L22.6136 24.9077H22.7435C22.7766 24.9077 22.8008 24.8833 22.8008 24.8545V24.5306C22.8008 24.4996 22.7766 24.4774 22.7435 24.4774H22.6863V23.8052H22.7435C22.7766 23.8052 22.8008 23.783 22.8008 23.7542V23.6255C22.8008 23.6056 22.7876 23.5878 22.7678 23.5789C23.0254 23.2395 22.9263 22.8779 22.7523 22.6716C22.7281 22.6428 22.7039 22.6162 22.6797 22.5895C22.6709 22.5807 22.6643 22.574 22.6555 22.5651C22.64 22.5496 22.6246 22.5319 22.6092 22.5186C22.6004 22.5097 22.5916 22.5008 22.5828 22.4942L22.5806 22.4919H22.5828C22.5894 22.4919 22.5916 22.4875 22.5916 22.4831V22.4631C22.5916 22.4587 22.5872 22.4542 22.5828 22.4542H22.541L22.5388 22.452C22.5322 22.4454 22.5233 22.4387 22.5167 22.432C22.4991 22.4187 22.4837 22.4054 22.4683 22.3943C22.4661 22.3899 22.4617 22.3855 22.4573 22.381C22.4551 22.381 22.4529 22.381 22.4529 22.3788C22.4088 22.3455 22.3692 22.3189 22.3296 22.2945C22.3252 22.2923 22.3252 22.2923 22.3208 22.2901C22.3054 22.2812 22.2877 22.2723 22.2745 22.2634C22.2701 22.2612 22.2679 22.259 22.2635 22.2568C22.2481 22.2501 22.2349 22.2435 22.2217 22.2368C22.2195 22.2368 22.2151 22.2346 22.2107 22.2324C22.1975 22.2257 22.1842 22.2213 22.171 22.2146C22.1688 22.2146 22.1666 22.2146 22.1644 22.2124C22.1358 22.2013 22.1094 22.1925 22.0852 22.188C22.083 22.188 22.0808 22.1858 22.0764 22.1836C22.0697 22.1836 22.0631 22.1814 22.0587 22.1791C22.0543 22.1791 22.0499 22.1791 22.0455 22.1769C22.0433 22.1747 22.0389 22.1747 22.0345 22.1747C22.0301 22.1747 22.0257 22.1747 22.0213 22.1747C22.0213 22.1747 22.0213 22.1747 22.0191 22.1747C22.0037 22.1725 21.9927 22.1725 21.9927 22.1725C21.9927 22.1725 21.7637 22.1725 21.4466 22.452H21.4136C21.4092 22.452 21.4048 22.4564 21.4048 22.4609V22.4831C21.4048 22.4853 21.407 22.4875 21.407 22.4875C21.3519 22.5407 21.2947 22.6006 21.2352 22.6716C21.1075 22.8225 21.0194 23.0576 21.0855 23.3061C21.0965 23.3504 21.1119 23.3926 21.1317 23.4347C21.1339 23.4436 21.1383 23.4503 21.1427 23.4591C21.1471 23.4702 21.1538 23.4791 21.1582 23.4902C21.167 23.5057 21.178 23.5213 21.1868 23.5368C21.1912 23.5434 21.1978 23.5523 21.2022 23.559C21.2066 23.5656 21.2132 23.5723 21.2154 23.5767C21.1978 23.5856 21.1846 23.6033 21.1846 23.6233V23.752C21.1846 23.7808 21.2088 23.803 21.2418 23.803H21.2991V24.4752H21.2418C21.2088 24.4752 21.1846 24.4996 21.1846 24.5284V24.8523C21.1846 24.8833 21.2088 24.9055 21.2418 24.9055H21.3717L21.2528 27.5942H20.9996C20.971 27.5942 20.949 27.6186 20.949 27.6474V28.1554C20.949 28.1865 20.971 28.2086 20.9996 28.2086H21.2264L21.2198 28.3307L21.1053 30.9461H20.8455C20.8147 30.9461 20.7882 30.9705 20.7882 30.9993V31.5073C20.7882 31.5362 20.8125 31.5606 20.8455 31.5606H21.0789L20.971 34.023H16.1158L16.0145 31.6915L16.0057 31.4963H16.173C16.2061 31.4963 16.2325 31.4719 16.2325 31.443V30.935C16.2325 30.904 16.2061 30.8818 16.173 30.8818H15.9771L15.8626 28.2663L15.856 28.1443H16.085C16.1114 28.1443 16.1356 28.1199 16.1356 28.0933V27.5831C16.1356 27.5542 16.1114 27.5298 16.085 27.5298H15.8295L15.7128 24.8412H15.8405C15.8736 24.8412 15.8978 24.8168 15.8978 24.7879V24.4641C15.8978 24.433 15.8736 24.4108 15.8405 24.4108H15.7833V23.7387H15.8405C15.8736 23.7387 15.8978 23.7165 15.8978 23.6876V23.559C15.8978 23.539 15.8868 23.5213 15.867 23.5124C16.1224 23.173 16.0233 22.8114 15.8494 22.6051C15.8251 22.5762 15.8009 22.5496 15.7789 22.523C15.7701 22.5141 15.7635 22.5075 15.7547 22.4986C15.7371 22.4831 15.7216 22.4675 15.7062 22.452C15.6974 22.4431 15.6886 22.4343 15.682 22.4276C15.6798 22.4276 15.6798 22.4254 15.6798 22.4254H15.682C15.6864 22.4254 15.6908 22.421 15.6908 22.4165V22.3965C15.6908 22.3921 15.6864 22.3877 15.682 22.3877H15.638V22.3855C15.6292 22.3788 15.6226 22.3721 15.6137 22.3655C15.5983 22.3522 15.5829 22.3389 15.5675 22.3278C15.5631 22.3233 15.5587 22.3189 15.5543 22.3167C15.5543 22.3145 15.5521 22.3145 15.5499 22.3123C15.5059 22.279 15.4662 22.2524 15.4266 22.228C15.4244 22.2257 15.4222 22.2257 15.42 22.2235C15.4024 22.2146 15.387 22.2036 15.3715 22.1969C15.3671 22.1947 15.3627 22.1925 15.3583 22.1902C15.3451 22.1836 15.3319 22.1769 15.3187 22.1703C15.3143 22.1703 15.3121 22.1681 15.3099 22.1681C15.2945 22.1592 15.2813 22.1547 15.2703 22.1503C15.2658 22.1481 15.2658 22.1481 15.2614 22.1481C15.2328 22.137 15.2086 22.1281 15.1844 22.1215C15.1822 22.1215 15.18 22.1215 15.1778 22.1215C15.169 22.1193 15.1624 22.117 15.1558 22.1148C15.1513 22.1126 15.1469 22.1126 15.1425 22.1126C15.1403 22.1126 15.1359 22.1104 15.1337 22.1104C15.1271 22.1082 15.1227 22.1082 15.1183 22.1082C15.1029 22.1059 15.0919 22.1059 15.0919 22.1059C15.0919 22.1059 14.8629 22.1059 14.5458 22.3855H14.5128C14.5084 22.3855 14.504 22.3899 14.504 22.3943V22.4165C14.504 22.4187 14.5062 22.421 14.5062 22.421C14.4511 22.4742 14.3939 22.5341 14.3344 22.6051C14.2067 22.7559 14.1187 22.9911 14.1847 23.2395C14.1957 23.2839 14.2111 23.326 14.2309 23.3682C14.2331 23.3771 14.2376 23.3837 14.242 23.3926C14.2464 23.4037 14.253 23.4126 14.2596 23.4236C14.2684 23.4392 14.2772 23.4547 14.2882 23.4702C14.2926 23.4769 14.297 23.4858 14.3036 23.4924C14.308 23.4969 14.3124 23.5057 14.3168 23.5102C14.2992 23.519 14.286 23.5368 14.286 23.5568V23.6854C14.286 23.7143 14.3102 23.7364 14.3432 23.7364H14.4005V24.4086H14.3432C14.3102 24.4086 14.286 24.433 14.286 24.4618V24.7857C14.286 24.8168 14.3102 24.839 14.3432 24.839H14.471L14.3543 27.5276H14.0988C14.0724 27.5276 14.0482 27.552 14.0482 27.5809V28.0889C14.0482 28.1199 14.0724 28.1421 14.0988 28.1421H14.3278L14.3212 28.2641L14.2067 30.8796H13.9469C13.9161 30.8796 13.8897 30.904 13.8897 30.9328V31.4408C13.8897 31.4696 13.9139 31.494 13.9469 31.494H14.1803L14.0702 34.0207H12.2338V36.4676H11.767L11.5931 30.5268H11.6019L12.8217 29.7504V27.7694H11.5116L11.3685 22.8935H11.4786L12.6368 22.1547V20.278H11.2936L11.1351 14.863H11.3905L12.5047 14.1553V12.3496H11.0624L10.9105 7.15421H11.3046L12.3725 6.47539V4.74285H10.84L10.7673 2.23389H11.1505L12.1369 1.60387V0H6.28866V1.60387L7.27511 2.23389H7.66045L7.58558 4.74285H6.05305V6.47539L7.12098 7.15421H7.51732L7.36539 12.3496H5.92094V14.1553L7.0329 14.863H7.29053L7.13199 20.278H5.78882V22.1547L6.94483 22.8935H7.05492L6.9118 27.7694H5.59946V29.7504L6.82152 30.5268H6.83033L6.65638 36.4676H5.19211V38.6704L6.55068 39.5378H6.5683L6.53967 40.5583H6.51105V44.0145H0V63.4451H140.354V44.0211ZM128.369 7.86408C128.369 7.68883 128.523 7.54464 128.715 7.54464C128.906 7.54464 129.063 7.68883 129.063 7.86408V8.6516H128.367V7.86408H128.369ZM110.921 8.6516H110.228V7.86408C110.228 7.68883 110.382 7.54464 110.573 7.54464C110.767 7.54464 110.921 7.68883 110.921 7.86408V8.6516ZM11.4389 21.1387C11.4389 20.9147 11.6393 20.7328 11.8837 20.7328C12.1303 20.7328 12.3307 20.9147 12.3307 21.1387V21.7177H11.4389V21.1387ZM11.3531 13.1771C11.3531 12.9619 11.5446 12.7866 11.7824 12.7866C12.0202 12.7866 12.2096 12.9619 12.2096 13.1771V13.7339H11.3553V13.1771H11.3531ZM11.2672 5.53702C11.2672 5.33072 11.4499 5.16212 11.6767 5.16212C11.9035 5.16212 12.0863 5.33072 12.0863 5.53702V6.06943H11.265V5.53702H11.2672ZM11.113 0.738713C11.113 0.545716 11.2826 0.390431 11.4918 0.390431C11.701 0.390431 11.8727 0.545716 11.8727 0.738713V1.23119H11.113V0.738713ZM7.31475 1.23119H6.55509V0.738713C6.55509 0.545716 6.72463 0.390431 6.93382 0.390431C7.143 0.390431 7.31255 0.545716 7.31255 0.738713V1.23119H7.31475ZM7.16282 6.06943H6.3415V5.53702C6.3415 5.33072 6.52646 5.16212 6.75326 5.16212C6.97785 5.16212 7.16282 5.33072 7.16282 5.53702V6.06943ZM7.07474 13.7339H6.2204V13.1771C6.2204 12.9619 6.41196 12.7866 6.64757 12.7866C6.88317 12.7866 7.07694 12.9619 7.07694 13.1771V13.7339H7.07474ZM6.98886 21.7155H6.09929V21.1387C6.09929 20.9125 6.29746 20.7306 6.54408 20.7306C6.79069 20.7306 6.98886 20.9125 6.98886 21.1387V21.7155ZM8.18891 35.8953H7.93789V30.9483H8.18891V35.8953ZM9.215 28.2486C9.47482 28.2486 9.684 28.4394 9.684 28.6767V29.2868H8.74599V28.6767C8.74599 28.4394 8.95517 28.2486 9.215 28.2486ZM9.08729 27.3169V23.1929H9.3405V27.3169H9.08729ZM9.9152 30.9483V35.8953H9.66419V30.9483H9.9152ZM9.3405 30.9483V35.8953H9.08729V30.9483H9.3405ZM9.215 36.9978C9.50345 36.9978 9.73685 37.213 9.73685 37.477V38.1558H8.69094V37.477C8.69094 37.213 8.92434 36.9978 9.215 36.9978ZM11.8617 39.5422H11.8771L12.236 39.3138V40.5649H11.8903L11.8617 39.5422ZM123.45 36.8891V40.5649H116.016V36.8891H123.45ZM116.446 34.125V30.5535H123.019V34.125H116.446ZM126.971 7.86408C126.971 7.68883 127.127 7.54464 127.321 7.54464C127.513 7.54464 127.667 7.68883 127.667 7.86408V8.6516H126.971V7.86408ZM125.577 7.86408C125.577 7.68883 125.733 7.54464 125.925 7.54464C126.114 7.54464 126.271 7.68883 126.271 7.86408V8.6516H125.575V7.86408H125.577ZM124.181 7.86408C124.181 7.68883 124.337 7.54464 124.529 7.54464C124.721 7.54464 124.875 7.68883 124.875 7.86408V8.6516H124.179V7.86408H124.181ZM122.787 7.86408C122.787 7.68883 122.941 7.54464 123.133 7.54464C123.325 7.54464 123.481 7.68883 123.481 7.86408V8.6516H122.785V7.86408H122.787ZM121.391 7.86408C121.391 7.68883 121.545 7.54464 121.737 7.54464C121.929 7.54464 122.085 7.68883 122.085 7.86408V8.6516H121.389V7.86408H121.391ZM119.995 7.86408C119.995 7.68883 120.152 7.54464 120.343 7.54464C120.535 7.54464 120.691 7.68883 120.691 7.86408V8.6516H119.995V7.86408ZM118.599 7.86408C118.599 7.68883 118.756 7.54464 118.947 7.54464C119.139 7.54464 119.295 7.68883 119.295 7.86408V8.6516H118.599V7.86408ZM121.708 11.6309V13.4743H117.758V11.6309H121.708ZM122.008 15.1669V17.667H117.457V15.1669H122.008ZM117.205 7.86408C117.205 7.68883 117.36 7.54464 117.551 7.54464C117.745 7.54464 117.899 7.68883 117.899 7.86408V8.6516H117.203V7.86408H117.205ZM117.159 19.5792H122.305V22.5895H117.159V19.5792ZM116.825 24.7524H122.64V28.1088H116.825V24.7524ZM115.809 7.86408C115.809 7.68883 115.964 7.54464 116.155 7.54464C116.349 7.54464 116.503 7.68883 116.503 7.86408V8.6516H115.809V7.86408ZM114.413 7.86408C114.413 7.68883 114.57 7.54464 114.761 7.54464C114.955 7.54464 115.109 7.68883 115.109 7.86408V8.6516H114.413V7.86408ZM113.017 7.86408C113.017 7.68883 113.174 7.54464 113.365 7.54464C113.559 7.54464 113.713 7.68883 113.713 7.86408V8.6516H113.017V7.86408ZM111.624 8.6516V7.86408C111.624 7.68883 111.778 7.54464 111.969 7.54464C112.163 7.54464 112.317 7.68883 112.317 7.86408V8.6516H111.624ZM104.619 35.7821H105.223L104.619 39.4269V35.7821ZM85.2492 32.6675L85.2558 32.672L85.3637 32.6054L85.3747 32.6099V32.0198L85.2492 31.9643V31.6227C85.2492 29.6994 86.709 27.4056 90.5712 27.4056C94.3981 27.4056 95.8932 29.6994 95.8932 31.6227V31.9532L95.7677 32.0087V32.5988L95.7721 32.5943L95.8866 32.6653L95.8932 32.6631V40.5671H85.2514V32.6675H85.2492ZM74.5082 23.7409H74.7042V24.413H74.5082V23.7409ZM73.9336 23.7409H74.3871V24.413H73.9336V23.7409ZM73.5658 23.7409H73.8124V24.413H73.5658V23.7409ZM67.6097 23.8052H67.8056V24.4774H67.6097V23.8052ZM67.035 23.8052H67.4886V24.4774H67.035V23.8052ZM66.6672 23.8052H66.9117V24.4774H66.6672V23.8052ZM56.0606 25.9725C56.0606 25.6132 56.3777 25.3226 56.7697 25.3226C57.1616 25.3226 57.4787 25.6154 57.4787 25.9725V28.6545H56.0584V25.9725H56.0606ZM53.8301 26.2365C53.8301 25.7707 54.2441 25.3936 54.7527 25.3936C55.2636 25.3936 55.6753 25.7707 55.6753 26.2365V28.6568H53.8301V26.2365ZM52.0267 25.9725C52.0267 25.6132 52.3438 25.3226 52.7358 25.3226C53.1277 25.3226 53.447 25.6154 53.447 25.9725V28.6545H52.0267V25.9725ZM39.8039 35.1388C39.8039 32.7097 41.9596 30.742 44.6173 30.742C47.275 30.742 49.4285 32.7097 49.4285 35.1388V40.5649H39.8061V35.1388H39.8039ZM35.7854 25.9725C35.7854 25.6132 36.1047 25.3226 36.4967 25.3226C36.8908 25.3226 37.2079 25.6154 37.2079 25.9725V28.6545H35.7877V25.9725H35.7854ZM33.5571 26.2365C33.5571 25.7707 33.9689 25.3936 34.4797 25.3936C34.9906 25.3936 35.4023 25.7707 35.4023 26.2365V28.6568H33.5571V26.2365ZM31.7538 25.9725C31.7538 25.6132 32.073 25.3226 32.465 25.3226C32.8569 25.3226 33.174 25.6154 33.174 25.9725V28.6545H31.7538V25.9725ZM22.3208 23.8052H22.5652V24.4774H22.3208V23.8052ZM21.7439 23.8052H22.1975V24.4774H21.7439V23.8052ZM21.4268 23.8052H21.6228V24.4774H21.4268V23.8052ZM15.4222 23.7409H15.6688V24.413H15.4222V23.7409ZM14.8453 23.7409H15.3011V24.413H14.8453V23.7409ZM14.5282 23.7409H14.7242V24.413H14.5282V23.7409ZM11.8265 37.4747C11.8265 37.2462 12.0004 37.0555 12.236 37.0089V38.1535H11.8265V37.4747ZM11.56 28.6767C11.56 28.4394 11.7692 28.2486 12.029 28.2486C12.2889 28.2486 12.498 28.4394 12.498 28.6767V29.2868H11.56V28.6767ZM11.3024 37.4747V38.1535H10.2587V37.4747C10.2587 37.2107 10.4921 36.9978 10.7806 36.9978C11.069 36.9978 11.3024 37.213 11.3024 37.4747ZM10.2389 35.8953V30.9483H10.4899V35.8953H10.2389ZM11.091 28.6767V29.2868H10.153V28.6767C10.153 28.4394 10.3622 28.2486 10.622 28.2486C10.8796 28.2486 11.091 28.4394 11.091 28.6767ZM10.2389 27.3169V23.1929H10.4899V27.3169H10.2389ZM10.9941 21.7155H10.1046V21.1387C10.1046 20.9125 10.3027 20.7306 10.5494 20.7306C10.7938 20.7306 10.9941 20.9125 10.9941 21.1387V21.7155ZM10.2389 19.8233V15.0249H10.4899V19.8233H10.2389ZM10.9259 13.1771V13.7339H10.0693V13.1771C10.0693 12.9619 10.2609 12.7866 10.4965 12.7866C10.7321 12.7866 10.9259 12.9619 10.9259 13.1771ZM10.2389 12.1011V7.53355H10.4899V12.1011H10.2389ZM10.8554 5.53702V6.06943H10.0363V5.53702C10.0363 5.33072 10.2191 5.16212 10.4459 5.16212C10.6727 5.16212 10.8554 5.33072 10.8554 5.53702ZM10.2389 4.54098V2.489H10.4899V4.54098H10.2389ZM9.97466 0.738713C9.97466 0.545716 10.1442 0.390431 10.3534 0.390431C10.5626 0.390431 10.7321 0.545716 10.7321 0.738713V1.23119H9.97245V0.738713H9.97466ZM9.66419 2.489H9.9152V4.54098H9.66419V2.489ZM9.66419 7.53355H9.9152V12.1011H9.66419V7.53355ZM9.66419 15.0249H9.9152V19.8233H9.66419V15.0249ZM9.66419 23.1929H9.9152V27.3169H9.66419V23.1929ZM8.83407 0.738713C8.83407 0.545716 9.00361 0.390431 9.21279 0.390431C9.42198 0.390431 9.59372 0.545716 9.59372 0.738713V1.23119H8.83407V0.738713ZM9.3405 2.489V4.54098H9.08729V2.489H9.3405ZM8.80324 5.53702C8.80324 5.33072 8.986 5.16212 9.21279 5.16212C9.43959 5.16212 9.62235 5.33072 9.62235 5.53702V6.06943H8.80324V5.53702ZM9.3405 7.53355V12.1011H9.08729V7.53355H9.3405ZM8.78562 13.1771C8.78562 12.9619 8.97719 12.7866 9.215 12.7866C9.4506 12.7866 9.64217 12.9619 9.64217 13.1771V13.7339H8.78783V13.1771H8.78562ZM9.3405 15.0249V19.8233H9.08729V15.0249H9.3405ZM8.77021 21.1387C8.77021 20.9147 8.96838 20.7328 9.215 20.7328C9.45941 20.7328 9.65978 20.9147 9.65978 21.1387V21.7177H8.77021V21.1387ZM8.51259 2.489H8.7636V4.54098H8.51259V2.489ZM8.51259 7.53355H8.7636V12.1011H8.51259V7.53355ZM8.51259 15.0249H8.7636V19.8233H8.51259V15.0249ZM8.51259 23.1929H8.7636V27.3169H8.51259V23.1929ZM8.51259 30.9483H8.7636V35.8953H8.51259V30.9483ZM7.69568 0.738713C7.69568 0.545716 7.86522 0.390431 8.07441 0.390431C8.28359 0.390431 8.45534 0.545716 8.45534 0.738713V1.23119H7.69568V0.738713ZM8.18891 2.489V4.54098H7.93789V2.489H8.18891ZM7.57237 5.53702C7.57237 5.33072 7.75733 5.16212 7.98193 5.16212C8.20872 5.16212 8.39368 5.33072 8.39368 5.53702V6.06943H7.57017V5.53702H7.57237ZM8.18891 7.53355V12.1011H7.93789V7.53355H8.18891ZM7.50191 13.1771C7.50191 12.9619 7.69348 12.7866 7.93128 12.7866C8.16909 12.7866 8.35845 12.9619 8.35845 13.1771V13.7339H7.50411V13.1771H7.50191ZM8.18891 15.0249V19.8233H7.93789V15.0249H8.18891ZM7.43365 21.1387C7.43365 20.9147 7.63182 20.7328 7.87844 20.7328C8.12505 20.7328 8.32322 20.9147 8.32322 21.1387V21.7177H7.43365V21.1387ZM8.18891 23.1929V27.3169H7.93789V23.1929H8.18891ZM7.33677 28.6767C7.33677 28.4394 7.54815 28.2486 7.80577 28.2486C8.0634 28.2486 8.27478 28.4394 8.27478 28.6767V29.2868H7.33677V28.6767ZM7.12538 37.4747C7.12538 37.2107 7.35879 36.9978 7.64724 36.9978C7.93569 36.9978 8.16909 37.2107 8.16909 37.4747V38.1535H7.12538V37.4747ZM5.92975 29.2868V28.6767C5.92975 28.4394 6.13893 28.2486 6.39875 28.2486C6.65858 28.2486 6.86776 28.4394 6.86776 28.6767V29.2868H5.92975ZM5.55762 38.1535V37.4747C5.55762 37.2107 5.79102 36.9978 6.07947 36.9978C6.36793 36.9978 6.60133 37.2107 6.60133 37.4747V38.1535H5.55762Z" fill="url(#paint0_linear_6_35358)"/>
<defs>
<linearGradient id="paint0_linear_6_35358" x1="70.4007" y1="-44.1507" x2="73.073" y2="55.8879" gradientUnits="userSpaceOnUse">
<stop stop-color="#EF9120"/>
<stop offset="1" stop-color="#FDF39F"/>
</linearGradient>
</defs>
</svg>
